<svg xmlns="http://www.w3.org/2000/svg" viewBox="0 0 16 16"><defs><clipPath id="a"><rect width="16" height="16" rx="0"/></clipPath></defs><g clip-path="url(#a)"><path fill="#53B7F4" d="M10.308 1.003H4.225c-1.22 0-2.208.99-2.208 2.208v9.577c0 1.22.99 2.207 2.208 2.207h7.586c1.22 0 2.208-.989 2.208-2.207V4.714a1.88 1.88 0 0 0-.549-1.327l-1.836-1.835a1.88 1.88 0 0 0-1.326-.549"/><path fill="#29A3D3" d="M11.853 4.283h2.116a1.9 1.9 0 0 0-.499-.896l-1.836-1.835a1.9 1.9 0 0 0-.964-.515v2.061a1.18 1.18 0 0 0 1.183 1.185m-.269 1.986H9.238a.37.37 0 0 0-.32.178L7.267 9.13l-.019.031-.41.665L5.12 7.019h1.513l.855 1.272.43-.705-.773-1.153a.38.38 0 0 0-.31-.166H4.451a.375.375 0 0 0-.319.572l2.386 3.9a.374.374 0 0 0 .637.002l2.29-3.722h1.506L9.419 9.822l-.731-1.09-.433.7.886 1.321c.07.105.186.166.31.166h.018a.38.38 0 0 0 .312-.196l2.132-3.9a.376.376 0 0 0-.329-.554"/><path fill="#FFF" d="m11.912 6.636-2.131 3.9a.38.38 0 0 1-.313.195h-.017a.38.38 0 0 1-.31-.165l-.887-1.32.433-.702.733 1.09 1.533-2.803H9.447l-2.291 3.722a.375.375 0 0 1-.638-.001l-2.387-3.9a.38.38 0 0 1-.008-.38.37.37 0 0 1 .327-.192h2.38c.126 0 .243.062.312.165l.773 1.153-.431.705-.855-1.272H5.117L6.834 9.64l.41-.664.018-.031L8.914 6.26a.38.38 0 0 1 .318-.178h2.347c.133 0 .255.07.322.185a.36.36 0 0 1 .011.37"/></g></svg>