<svg xmlns="http://www.w3.org/2000/svg" viewBox="0 0 16 16"><path fill="currentColor" d="M6.281 9.294h7.613c.334 0 .606.273.606.606v.546a.43.43 0 1 1-.86 0v-.291H6.535v2.256h4.226a.43.43 0 1 1 0 .86H6.28a.607.607 0 0 1-.607-.605v-.977h-1.89a1 1 0 0 1-1-1V6.541h-.697a.607.607 0 0 1-.606-.607V3.17c0-.334.272-.606.606-.606h7.612c.335 0 .607.272.607.606v2.766a.607.607 0 0 1-.607.606H3.597v3.335a1 1 0 0 0 1 1h1.078V9.9c0-.334.272-.606.606-.606m-3.94-5.869v2.256h7.103V3.425zm10.565 8.148a.262.262 0 1 1 .525 0v.549h.549a.263.263 0 0 1 0 .525h-.549v.548a.262.262 0 1 1-.525 0v-.548h-.548a.263.263 0 0 1 0-.525h.548z"/></svg>