<svg viewBox="0 0 1024 1024" xmlns="http://www.w3.org/2000/svg"><path d="M869.85 499.048H393.24c-14.42 0-26.15 11.649-26.15 25.968v92.67H263.981v-236.83h319.633c23.909 0 43.335-19.29 43.335-43.033v-166.79c0-23.742-19.352-43.033-43.335-43.033h-412.28C147.426 128 128 147.29 128 171.033v166.79c0 23.742 19.426 43.033 43.335 43.033h40.346v258.346c0 9.868 5.53 18.4 13.599 22.778a26.297 26.297 0 0 0 18.529 7.642h123.28v108.25c0 14.32 11.73 25.968 26.15 25.968h168.858c14.42 0 26.15-11.649 26.15-25.968 0-14.32-11.73-25.968-26.15-25.968H419.39v-200.92H843.7v30.346c0 14.32 11.73 25.968 26.15 25.968 14.42 0 26.15-11.648 26.15-25.968v-56.314c0-14.32-11.73-25.968-26.15-25.968ZM180.3 179.936h394.35V328.92H180.3V179.936Zm692.032 584.876h-60.184v-60.184c0-13.051-10.617-23.668-23.668-23.668-13.051 0-23.668 10.617-23.668 23.668v60.184h-60.184c-13.051 0-23.668 10.617-23.668 23.668 0 13.051 10.617 23.668 23.668 23.668h60.184v60.184c0 13.051 10.617 23.668 23.668 23.668 13.051 0 23.668-10.617 23.668-23.668v-60.184h60.184c13.051 0 23.668-10.617 23.668-23.668 0-13.051-10.617-23.668-23.668-23.668Z" fill="currentColor"/></svg>