<svg viewBox="0 0 1024 1024"
    xmlns="http://www.w3.org/2000/svg">
    <g transform="translate(128.000000, 128.000000)" fill="currentColor" fill-rule="nonzero">
        <path d="M741.849596,371.047957 L265.239809,371.047957 C250.81973,371.047957 239.089406,382.696533 239.089406,397.01612 L239.089406,489.685366 L135.982099,489.685366 L135.982099,252.855716 L455.614749,252.855716 C479.523689,252.855716 498.949703,233.565081 498.949703,209.82276 L498.949703,43.0329564 C498.949703,19.2906356 479.598405,0 455.614749,0 L43.3349548,0 C19.4260142,0 0,19.2906356 0,43.0329564 L0,209.82276 C0,233.565081 19.4260142,252.855716 43.3349548,252.855716 L83.681292,252.855716 L83.681292,511.201844 C83.681292,521.069746 89.2102345,529.602143 97.2795019,533.979633 C101.986575,538.653903 108.561533,541.621693 115.808931,541.621693 L239.089406,541.621693 L239.089406,649.871837 C239.089406,664.191424 250.81973,675.84 265.239809,675.84 L434.096702,675.84 C448.516782,675.84 460.247106,664.191424 460.247106,649.871837 C460.247106,635.552249 448.516782,623.903673 434.096702,623.903673 L291.390213,623.903673 L291.390213,422.984284 L715.699193,422.984284 L715.699193,453.329937 C715.699193,467.649525 727.429516,479.298101 741.849596,479.298101 C756.269676,479.298101 768,467.649525 768,453.329937 L768,397.01612 C768,382.696533 756.269676,371.047957 741.849596,371.047957 Z M52.3008075,51.9363267 L446.648896,51.9363267 L446.648896,200.91939 L52.3008075,200.91939 L52.3008075,51.9363267 Z" id="形状"></path>
        <path d="M744.332075,636.812075 L684.147925,636.812075 L684.147925,576.627925 C684.147925,563.576755 673.53117,552.96 660.48,552.96 C647.42883,552.96 636.812075,563.576755 636.812075,576.627925 L636.812075,636.812075 L576.627925,636.812075 C563.576755,636.812075 552.96,647.42883 552.96,660.48 C552.96,673.53117 563.576755,684.147925 576.627925,684.147925 L636.812075,684.147925 L636.812075,744.332075 C636.812075,757.383245 647.42883,768 660.48,768 C673.53117,768 684.147925,757.383245 684.147925,744.332075 L684.147925,684.147925 L744.332075,684.147925 C757.383245,684.147925 768,673.53117 768,660.48 C768,647.42883 757.383245,636.812075 744.332075,636.812075 Z" id="路径"></path>
    </g>
</svg>