<svg xmlns="http://www.w3.org/2000/svg" viewBox="0 0 16 16"><path fill="currentColor" d="M13.506 3H10.5V1.8a.8.8 0 0 0-.8-.8H6.3a.8.8 0 0 0-.8.8V3H2.494A.496.496 0 0 0 2 3.496c0 .276.228.504.504.504H3v10a1 1 0 0 0 1 1h8a1 1 0 0 0 1-1V4h.496A.505.505 0 0 0 14 3.504.5.5 0 0 0 13.506 3M9.5 3h-3V2h3zM4 14V4h8v10zm2-7.507v5.014c0 .276.228.493.496.493A.5.5 0 0 0 7 11.507V6.493A.496.496 0 0 0 6.504 6 .5.5 0 0 0 6 6.493m3 5.014V6.493C9 6.217 9.228 6 9.496 6c.276 0 .504.217.504.493v5.014a.496.496 0 0 1-.496.493.5.5 0 0 1-.504-.493"/></svg>