<svg xmlns="http://www.w3.org/2000/svg" viewBox="0 0 1024 1024"><path fill="currentColor" d="M658.24 275.52H72.96C32.896 275.52 0 306.432 0 344.32v550.784c0 37.76 32.896 68.736 73.024 68.736H658.24c40.128 0 72.96-30.912 72.96-68.736V344.256c0-37.76-32.832-68.736-72.96-68.736"/><path fill="currentColor" d="m804.16 206.784.128.128V757.44l-.128.128h-72.768l-.128-.128V344.32c0-37.888-32.768-68.736-73.024-68.736H219.2l-.128-.128v-68.48l.128-.128h584.96zm.128-68.736H219.072c-40.128 0-72.96 30.912-72.96 68.736v68.736c0 37.76 32.832 68.736 72.96 68.736H658.24v413.312c0 37.76 32.832 68.736 72.96 68.736h73.088c40.192 0 73.024-30.976 73.024-68.736V206.72c0-37.76-32.832-68.736-72.96-68.736z"/><path fill="currentColor" d="m950.272 69.312.064.128v550.528l-.064.128H877.44l-.128-.128V206.784c0-37.888-32.768-68.736-72.96-68.736h-439.04l-.128-.128V69.44l.128-.128zm.064-68.736H365.184c-40.192 0-73.024 30.912-73.024 68.736v68.736c0 37.76 32.832 68.736 72.96 68.736h439.168v413.312c0 37.76 32.896 68.736 73.024 68.736h73.024c40.192 0 73.088-30.976 73.088-68.736V69.312c0-37.76-32.896-68.736-73.088-68.736"/></svg>