<svg xmlns="http://www.w3.org/2000/svg" viewBox="0 0 1024 1024"><path fill="currentColor" d="M512.312 799.992c-185.812 0-354.78-104.32-440.828-273.28l-6.326-12.442a5.05 5.05 0 0 1 0-4.556l6.326-12.44c86.047-168.32 255.016-273.282 440.828-273.282 185.188 0 354.157 104.961 440.204 273.281l7.029 13.825c.29.57.29 1.22 0 1.788l-7.029 13.825C866.469 695.672 697.5 799.992 512.312 799.992M135.35 512.48c77.375 138.59 220.022 223.512 376.962 223.512 156.322 0 299.579-84.927 376.97-223.524a.98.98 0 0 0-.009-.964c-77.998-138.59-220.644-223.512-376.961-223.512-156.94 0-299.587 84.922-376.962 223.512a1 1 0 0 0 0 .976m376.634 183.824c101.797 0 184.313-82.519 184.313-184.312 0-101.789-82.516-184.309-184.313-184.309s-184.312 82.52-184.312 184.31c0 101.792 82.516 184.311 184.312 184.311m0-304.62c66.438 0 120.313 53.863 120.313 120.308s-53.875 120.312-120.313 120.312c-66.453 0-120.312-53.867-120.312-120.312s53.859-120.309 120.312-120.309"/></svg>