<svg xmlns="http://www.w3.org/2000/svg" viewBox="0 0 16 16"><path fill="currentColor" d="M13.493 4 2.505 3.986A.507.507 0 0 1 2 3.49c0-.276.23-.504.506-.503l10.988.012a.51.51 0 0 1 .506.505v.011c0 .276-.23.485-.507.484M2.8 10.767l3.167-2.375a.5.5 0 0 0 0-.8L2.8 5.218a.5.5 0 0 0-.8.4v4.75a.5.5 0 0 0 .8.4m.2-1.4v-2.75l1.833 1.375zM13.507 8.5H7.993a.497.497 0 0 1-.493-.504v-.011c0-.276.217-.485.493-.485h5.514c.276 0 .493.209.493.485v.011a.497.497 0 0 1-.493.504m-.014 4.5-10.988-.013A.507.507 0 0 1 2 12.49c0-.276.23-.504.506-.503l10.988.012a.51.51 0 0 1 .506.505v.011c0 .276-.23.485-.507.484"/></svg>