<svg xmlns="http://www.w3.org/2000/svg" viewBox="0 0 16 16"><path fill="currentColor" d="M6 5.295v-1.13H2.5q-.05 0-.098-.01t-.093-.029-.087-.046-.076-.062q-.034-.035-.062-.076t-.046-.086-.028-.094T2 3.664t.01-.097q.01-.048.028-.094.019-.045.046-.086.028-.041.062-.076.035-.035.076-.062.041-.028.087-.047.045-.018.093-.028.049-.01.098-.01H6v-1.13c0-.16.176-.253.308-.164L8.753 3.5c.119.08.119.25 0 .329l-2.445 1.63A.197.197 0 0 1 6 5.295m4.5-1.13h3c.275 0 .5-.228.5-.504v-.012a.49.49 0 0 0-.5-.485h-3c-.275 0-.5.228-.5.504v.011c0 .277.225.485.5.485m2.994 5H2.506A.49.49 0 0 1 2 8.678v-.01c0-.277.23-.505.506-.505h10.988c.276 0 .506.21.506.485v.012c0 .276-.23.503-.506.503m0 5H2.506A.49.49 0 0 1 2 13.678v-.01c0-.277.23-.505.506-.505h10.988c.276 0 .506.228.506.497 0 .276-.23.503-.506.503"/></svg>