<svg xmlns="http://www.w3.org/2000/svg" viewBox="0 0 1024 1024"><g fill="currentColor" transform="translate(128 128)"><rect width="767.249" height="66.783" x=".16" rx="33.391"/><rect width="319.687" height="66.783" x="447.722" y="233.739" rx="33.391"/><rect width="319.687" height="66.783" x="447.722" y="467.478" rx="33.391"/><rect width="767.249" height="66.783" x=".16" y="701.217" rx="33.391"/><path d="M409.68 375.986 281.803 242.421c-12.119-11.271-30.4-11.271-42.518 0-5.642 5.887-8.812 13.875-8.812 22.205s3.17 16.318 8.812 22.205l80.561 84.146H30.21C13.526 370.977 0 385.105 0 402.532s13.526 31.555 30.21 31.555h289.637l-80.241 83.478c-5.642 5.887-8.812 13.876-8.812 22.205 0 8.33 3.17 16.318 8.812 22.206 12.118 11.27 30.4 11.27 42.518 0L409.999 428.41c6.537-6.833 9.616-16.48 8.312-26.045 1.224-9.718-1.969-19.476-8.632-26.379Z"/></g></svg>