<svg viewBox="0 0 1024 1024"
    xmlns="http://www.w3.org/2000/svg">
    <g transform="translate(128.000000, 128.000000)" fill="currentColor" fill-rule="nonzero">

        <rect id="矩形" x="0.159843597" y="0" width="767.249267" height="66.7826087" rx="33.3913043"></rect>
        <rect id="矩形" x="447.721916" y="233.73913" width="319.687195" height="66.7826087" rx="33.3913043"></rect>
        <rect id="矩形" x="447.721916" y="467.478261" width="319.687195" height="66.7826087" rx="33.3913043"></rect>
        <rect id="矩形" x="0.159843597" y="701.217391" width="767.249267" height="66.7826087" rx="33.3913043"></rect>
        <path d="M409.67914,375.986087 L281.804262,242.42087 C269.685418,231.149896 251.404709,231.149896 239.285865,242.42087 C233.644032,248.308094 230.474026,256.296286 230.474026,264.626087 C230.474026,272.955888 233.644032,280.94408 239.285865,286.831304 L319.847038,370.977391 L30.2104399,370.977391 C13.5256746,370.977391 -1.05057529e-12,385.104949 -1.05057529e-12,402.532174 C-1.05057529e-12,419.959399 13.5256746,434.086957 30.2104399,434.086957 L319.847038,434.086957 L239.605552,517.565217 C233.963719,523.452442 230.793713,531.440634 230.793713,539.770435 C230.793713,548.100235 233.963719,556.088427 239.605552,561.975652 C251.724396,573.246626 270.005106,573.246626 282.123949,561.975652 L409.998827,428.410435 C416.536035,421.576675 419.614889,411.929091 418.310694,402.365217 C419.534867,392.646789 416.342005,382.888995 409.67914,375.986087 L409.67914,375.986087 Z" id="路径"></path>

    </g>
</svg>