<svg xmlns="http://www.w3.org/2000/svg" viewBox="0 0 16 16"><defs><clipPath id="a"><rect width="16" height="16" rx="0"/></clipPath></defs><g clip-path="url(#a)"><path fill="currentColor" fill-rule="evenodd" d="M1.5 6V3q0-.098.02-.195.018-.097.056-.188.038-.09.093-.173.054-.081.124-.151t.151-.124q.082-.055.173-.093t.188-.057T2.5 2h11q.098 0 .195.02.097.018.188.056.09.038.173.093.082.054.151.124.07.07.124.151.055.082.093.173t.057.188T14.5 3v3q0 .098-.02.195-.018.097-.056.188-.038.09-.092.173-.055.081-.125.151t-.151.124q-.082.055-.173.093t-.188.057T13.5 7h-11q-.098 0-.195-.02-.097-.018-.188-.056-.09-.038-.173-.093-.081-.054-.151-.124t-.124-.151q-.055-.082-.093-.173t-.057-.188T1.5 6m1 0h11V3h-11zm-.46 4V9h-.3v1zm.6-1h-.3v1h.3zm.6 0h-.3v1h.3zm.6 0h-.3v1h.3zm.6 0h-.3v1h.3zm.6 0h-.3v1h.3zm.6 0h-.3v1h.3zm.6 0h-.3v1h.3zm.6 0h-.3v1h.3zm.6 0h-.3v1h.3zm.6 0h-.3v1h.3zm.46 1 .135-.99Q8.568 9 8.5 9h-.16v1zm.867-.499L8.5 10l.677-.736zm3.272 4.134v-1.774h-1.774a.365.365 0 0 1-.365-.358c0-.2.165-.364.365-.364h1.774V9.365c0-.2.164-.365.358-.365.2 0 .364.165.364.365v1.774h1.774c.2 0 .365.164.365.358 0 .2-.165.364-.365.364h-1.774v1.774c0 .2-.164.365-.358.365a.367.367 0 0 1-.364-.365M1.442 9.002q-.153.009-.296.063L1.5 10l-.616-.788q-.121.095-.208.222L1.5 10l-.956-.294Q.5 9.85.5 10h1zM9.5 10.379v-.3h-1v.3zm-9-.079v.3h1v-.3zm9 .679v-.3h-1v.3zm-9-.079v.3h1v-.3zm9 .679v-.3h-1v.3zm-9-.079v.3h1v-.3zm9 .679v-.3h-1v.3zm-9-.079v.3h1v-.3zm9 .679v-.3h-1v.3zm-9-.079v.3h1l-.99.138q.02.152.087.292L1.5 13l-.734.68q.105.112.238.188L1.5 13l-.212.977Q1.393 14 1.5 14h.082v-1H1.5v-.3zM1.882 14h.3v-1h-.3zm.6 0h.3v-1h-.3zm.6 0h.3v-1h-.3zm.6 0h.3v-1h-.3zm.6 0h.3v-1h-.3zm.6 0h.3v-1h-.3zm.6 0h.3v-1h-.3zm.6 0h.3v-1h-.3zm.6 0h.3v-1h-.3zm.6 0h.3v-1h-.3zm.6 0h.3v-1h-.3zm.618 0q.14 0 .276-.039L8.5 13l.551.835q.129-.085.226-.205L8.5 13h-.018v1zm.928-.628q.058-.143.07-.297L8.5 13zM9.367 9.5q-.077-.133-.19-.237-.112-.103-.25-.168L8.5 10l.976-.216q-.033-.15-.11-.283"/></g></svg>