<svg xmlns="http://www.w3.org/2000/svg" viewBox="0 0 16 16"><path fill="currentColor" d="M6 4.131v-1.13H2.5q-.05 0-.098-.01t-.093-.029-.087-.046-.076-.062-.062-.076-.046-.087-.028-.093T2 2.5t.01-.097q.01-.049.028-.094.019-.046.046-.087.028-.04.062-.075.035-.035.076-.063t.087-.046.093-.028T2.5 2H6V.87c0-.16.176-.253.308-.164l2.445 1.63a.196.196 0 0 1 0 .329l-2.445 1.63A.197.197 0 0 1 6 4.13M10.5 3h3c.275 0 .5-.228.5-.505v-.01A.49.49 0 0 0 13.5 2h-3c-.275 0-.5.228-.5.504v.011c0 .276.225.485.5.485m2.994 5H2.506A.49.49 0 0 1 2 7.514v-.011C2 7.228 2.23 7 2.506 7h10.988c.276 0 .506.209.506.485v.011c0 .277-.23.504-.506.504m0 5H2.506A.49.49 0 0 1 2 12.514v-.011c0-.276.23-.504.506-.504h10.988c.276 0 .506.228.506.496 0 .276-.23.504-.506.504"/></svg>