<svg xmlns="http://www.w3.org/2000/svg" viewBox="0 0 16 16"><defs><clipPath id="a"><rect width="16" height="16" y="16" rx="0"/></clipPath></defs><g clip-path="url(#a)" transform="matrix(1 0 0 -1 0 32)"><path fill="currentColor" fill-rule="evenodd" d="M2.04 19v-1h-.3v1zm.6-1h-.3v1h.3zm.6 0h-.3v1h.3zm.6 0h-.3v1h.3zm.6 0h-.3v1h.3zm.6 0h-.3v1h.3zm.6 0h-.3v1h.3zm.6 0h-.3v1h.3zm.6 0h-.3v1h.3zm.6 0h-.3v1h.3zm.6 0h-.3v1h.3zm.46 1 .135-.99Q8.568 18 8.5 18h-.16v1zm.677-.736L8.5 19l.426-.904q.139.065.25.168m.19.237-.19-.237q.113.104.19.237m0 0q.076.133.11.283L8.5 19zm3.272 4.134v-1.774h-1.774a.365.365 0 0 1-.365-.358c0-.2.165-.364.365-.364h1.774v-1.774c0-.2.164-.365.358-.365.2 0 .364.165.364.365v1.774h1.774c.2 0 .365.164.365.358 0 .2-.165.364-.365.364H13.36v1.774c0 .2-.164.365-.358.365a.367.367 0 0 1-.364-.365M1.442 18.002q-.153.009-.296.063L1.5 19l-.616-.788q-.121.095-.208.222L1.5 19l-.956-.294Q.5 18.85.5 19h1zM9.5 19.379v-.3h-1v.3zm-9-.079v.3h1v-.3zm9 .679v-.3h-1v.3zm-9-.079v.3h1v-.3zm9 .679v-.3h-1v.3zm-9-.079v.3h1v-.3zm9 .679v-.3h-1v.3zm-9-.079v.3h1v-.3zm9 .679v-.3h-1v.3zm-9-.079v.3h1l-.99.138q.02.152.087.292L1.5 22l-.734.68q.105.112.238.188L1.5 22l-.212.977Q1.393 23 1.5 23h.082v-1H1.5v-.3zM1.882 23h.3v-1h-.3zm.6 0h.3v-1h-.3zm.6 0h.3v-1h-.3zm.6 0h.3v-1h-.3zm.6 0h.3v-1h-.3zm.6 0h.3v-1h-.3zm.6 0h.3v-1h-.3zm.6 0h.3v-1h-.3zm.6 0h.3v-1h-.3zm.6 0h.3v-1h-.3zm.6 0h.3v-1h-.3zm.618 0q.14 0 .276-.039L8.5 22l.551.834q.129-.084.226-.204L8.5 22h-.018v1zm.928-.628q.058-.143.07-.297L8.5 22zM1.5 29v-3q0-.098.02-.195.018-.097.056-.188.038-.09.093-.173.054-.081.124-.151t.151-.124q.082-.055.173-.093t.188-.057T2.5 25h11q.098 0 .195.02.097.018.188.056.09.038.173.093.082.054.151.124.07.07.124.151.055.082.093.173t.057.188.019.195v3q0 .099-.02.195-.018.097-.056.188-.038.09-.092.173-.055.081-.125.151t-.151.124q-.082.055-.173.093t-.188.057T13.5 30h-11q-.098 0-.195-.02-.097-.018-.188-.056-.09-.038-.173-.093-.081-.054-.151-.124t-.124-.151q-.055-.082-.093-.173t-.057-.188T1.5 29m1 0h11v-3h-11z"/></g></svg>