<svg xmlns="http://www.w3.org/2000/svg" viewBox="0 0 16 16"><path fill="currentColor" d="M13.494 1.836H2.506A.49.49 0 0 0 2 2.32v.01c0 .277.23.505.506.505h10.988A.507.507 0 0 0 14 2.339a.51.51 0 0 0-.506-.503m0 5H2.506A.49.49 0 0 0 2 7.32v.01c0 .277.23.505.506.505h10.988A.49.49 0 0 0 14 7.35v-.012a.51.51 0 0 0-.506-.503M6 10.705v1.13H2.5q-.05 0-.098.01t-.093.029-.087.046-.076.062-.062.076-.046.086-.028.094-.01.098.01.097.028.094q.019.045.046.086.028.041.062.076.035.035.076.062.041.028.087.046.045.02.093.029.049.01.098.01H6v1.13c0 .16.176.253.308.164l2.445-1.63a.196.196 0 0 0 0-.329l-2.445-1.63a.197.197 0 0 0-.308.164m4.5 1.13h3c.275 0 .5.228.5.504v.012a.49.49 0 0 1-.5.485h-3a.504.504 0 0 1-.5-.504v-.011c0-.277.225-.485.5-.485"/></svg>