<svg xmlns="http://www.w3.org/2000/svg" viewBox="0 0 1024 1024"><path fill="currentColor" d="M136.405 913.152a33.707 33.707 0 0 1-34.133-34.133V567.552a31.488 31.488 0 0 1 34.133-34.133 33.62 33.62 0 0 1 34.134 34.133v230.4l247.466-247.467a33.195 33.195 0 0 1 46.934 46.934L213.205 849.152H452.14a26.837 26.837 0 0 1 29.866 29.867 33.79 33.79 0 0 1-34.133 34.133zm716.8-452.267v-230.4L605.74 477.952a32.43 32.43 0 0 1-21.334 8.533 33.07 33.07 0 0 1-21.333-8.533 33.62 33.62 0 0 1 0-46.933l251.733-251.734H575.872a31.403 31.403 0 0 1-34.133-34.133 33.707 33.707 0 0 1 34.133-34.133h311.467c17.066 0 29.866 12.8 34.133 38.4v311.466a31.403 31.403 0 0 1-34.133 34.134 33.493 33.493 0 0 1-34.134-34.134"/></svg>