<svg xmlns="http://www.w3.org/2000/svg" viewBox="0 0 1024 1024"><path fill="currentColor" d="M768 767.92V192.159c0-34.99-28.569-64.158-63.81-64.158H319.81c-34.816 0-63.81 28.725-63.81 64.158v575.763V704h512v63.92ZM192 192.376C192 121.475 248.796 64 319.975 64h384.05C774.703 64 832 121.412 832 192.375v639.25C832 902.525 775.204 960 704.025 960h-384.05C249.297 960 192 902.588 192 831.625v-639.25ZM512 896c35.346 0 64-28.654 64-64 0-35.346-28.654-64-64-64-35.346 0-64 28.654-64 64 0 35.346 28.654 64 64 64Z"/></svg>