<svg xmlns="http://www.w3.org/2000/svg" viewBox="0 0 16 16"><path fill="currentColor" d="M5.5 2q0 .074-.007.147t-.022.146-.036.142-.05.139q-.027.068-.062.133t-.076.126-.087.119-.1.109-.108.099q-.057.046-.119.087-.06.041-.126.076-.065.035-.133.063t-.139.05q-.07.02-.142.035-.073.015-.146.022T4 3.5t-.147-.007-.146-.022-.142-.036q-.07-.021-.139-.05-.068-.027-.133-.062t-.126-.076-.119-.087-.109-.1-.099-.108q-.046-.057-.087-.119-.041-.06-.076-.126-.035-.065-.063-.133t-.05-.139q-.02-.07-.035-.142-.015-.073-.022-.146T2.5 2t.007-.147.022-.146.036-.142q.021-.07.05-.139.027-.068.062-.133t.076-.126.087-.119.1-.109.108-.099q.057-.046.119-.087.06-.041.126-.076.065-.035.133-.063t.139-.05q.07-.02.142-.035.073-.015.146-.022T4 .5t.147.007.146.022q.072.014.142.036t.139.05.133.062.126.076q.062.04.119.087t.109.1.099.108.087.119.076.126.063.133.05.139q.02.07.035.142.015.073.022.146T5.5 2m8 0q0 .074-.007.147t-.022.146-.036.142-.05.139q-.027.068-.062.133t-.076.126-.088.119q-.046.057-.098.109t-.11.099-.118.087q-.06.041-.126.076-.065.035-.133.063t-.139.05q-.07.02-.142.035-.073.015-.146.022T12 3.5t-.147-.007-.146-.022q-.072-.014-.142-.036t-.139-.05-.133-.062-.126-.076-.119-.087-.109-.1-.099-.108q-.046-.057-.087-.119-.041-.06-.076-.126-.035-.065-.063-.133t-.05-.139q-.02-.07-.035-.142-.015-.073-.022-.146T10.5 2t.007-.147.022-.146.036-.142q.021-.07.05-.139.027-.068.062-.133t.076-.126.087-.119.1-.109.108-.099q.057-.046.119-.087.06-.041.126-.076.065-.035.133-.063t.139-.05q.07-.02.142-.035.073-.015.146-.022T12 .5t.147.007.146.022.142.036q.07.021.139.05.068.027.133.062t.126.076.119.087.109.1.098.108q.047.057.088.119.041.06.076.126.035.065.063.133t.05.139q.02.07.035.142.015.073.022.146T13.5 2m-8 4q0 .074-.007.147t-.022.146-.036.142-.05.139q-.027.068-.062.133t-.076.126-.087.119-.1.109-.108.099q-.057.046-.119.087-.06.041-.126.076-.065.035-.133.063t-.139.05q-.07.02-.142.035-.073.015-.146.022T4 7.5t-.147-.007-.146-.022-.142-.036q-.07-.021-.139-.05-.068-.027-.133-.062t-.126-.076-.119-.087-.109-.1-.099-.108q-.046-.057-.087-.119-.041-.06-.076-.126-.035-.065-.063-.133t-.05-.139q-.02-.07-.035-.142-.015-.073-.022-.146T2.5 6t.007-.147.022-.146q.014-.072.036-.142t.05-.139.062-.133.076-.126q.04-.062.087-.119t.1-.109.108-.099.119-.087.126-.076.133-.063.139-.05q.07-.02.142-.035.073-.015.146-.022T4 4.5t.147.007.146.022q.072.014.142.036t.139.05.133.062.126.076q.062.04.119.087t.109.1.099.108.087.119.076.126.063.133.05.139q.02.07.035.142.015.073.022.146T5.5 6m8 0q0 .074-.007.147t-.022.146-.036.142-.05.139q-.027.068-.062.133t-.076.126-.088.119q-.046.057-.098.109t-.11.099-.118.087q-.06.041-.126.076-.065.035-.133.063t-.139.05q-.07.02-.142.035-.073.015-.146.022T12 7.5t-.147-.007-.146-.022q-.072-.014-.142-.036t-.139-.05-.133-.062-.126-.076-.119-.087-.109-.1-.099-.108q-.046-.057-.087-.119-.041-.06-.076-.126-.035-.065-.063-.133t-.05-.139q-.02-.07-.035-.142-.015-.073-.022-.146T10.5 6t.007-.147.022-.146q.014-.072.036-.142t.05-.139.062-.133.076-.126q.04-.062.087-.119t.1-.109.108-.099.119-.087.126-.076.133-.063.139-.05q.07-.02.142-.035.073-.015.146-.022T12 4.5t.147.007.146.022.142.036q.07.021.139.05.068.027.133.062t.126.076.119.087.109.1.098.108q.047.057.088.119.041.06.076.126.035.065.063.133t.05.139q.02.07.035.142.015.073.022.146T13.5 6m-8 4q0 .074-.007.147t-.022.146-.036.142-.05.139q-.027.068-.062.133t-.076.126-.087.119-.1.109-.108.098q-.057.047-.119.088-.06.041-.126.076-.065.035-.133.063t-.139.05q-.07.02-.142.035-.073.015-.146.022T4 11.5t-.147-.007-.146-.022-.142-.036-.139-.05-.133-.062-.126-.076-.119-.088q-.057-.046-.109-.098t-.099-.11-.087-.118q-.041-.06-.076-.126-.035-.065-.063-.133t-.05-.139q-.02-.07-.035-.142-.015-.073-.022-.146T2.5 10t.007-.147.022-.146q.014-.072.036-.142t.05-.139.062-.133.076-.126.087-.119.1-.109.108-.099q.057-.046.119-.087.06-.041.126-.076.065-.035.133-.063t.139-.05q.07-.02.142-.035.073-.015.146-.022T4 8.5t.147.007.146.022q.072.014.142.036t.139.05.133.062.126.076q.062.04.119.087t.109.1.099.108.087.119.076.126.063.133.05.139q.02.07.035.142.015.073.022.146T5.5 10m8 0q0 .074-.007.147t-.022.146-.036.142-.05.139q-.027.068-.062.133t-.076.126-.088.119q-.046.057-.098.109t-.11.098-.118.088q-.06.041-.126.076-.065.035-.133.063t-.139.05q-.07.02-.142.035-.073.015-.146.022T12 11.5t-.147-.007-.146-.022q-.072-.014-.142-.036t-.139-.05-.133-.062-.126-.076-.119-.088q-.057-.046-.109-.098t-.099-.11-.087-.118q-.041-.06-.076-.126-.035-.065-.063-.133t-.05-.139q-.02-.07-.035-.142-.015-.073-.022-.146T10.5 10t.007-.147.022-.146q.014-.072.036-.142t.05-.139.062-.133.076-.126.087-.119.1-.109.108-.099q.057-.046.119-.087.06-.041.126-.076.065-.035.133-.063t.139-.05q.07-.02.142-.035.073-.015.146-.022T12 8.5t.147.007.146.022.142.036q.07.021.139.05.068.027.133.062t.126.076.119.087.109.1.098.108q.047.057.088.119.041.06.076.126.035.065.063.133t.05.139q.02.07.035.142.015.073.022.146T13.5 10m-8 4q0 .074-.007.147t-.022.146-.036.142-.05.139q-.027.068-.062.133t-.076.126-.087.119-.1.109-.108.098q-.057.047-.119.088-.06.041-.126.076-.065.035-.133.063t-.139.05q-.07.02-.142.035-.073.015-.146.022T4 15.5t-.147-.007-.146-.022-.142-.036-.139-.05-.133-.062-.126-.076-.119-.088q-.057-.046-.109-.098t-.099-.11-.087-.118q-.041-.06-.076-.126-.035-.065-.063-.133t-.05-.139q-.02-.07-.035-.142-.015-.073-.022-.146T2.5 14t.007-.147.022-.146q.014-.072.036-.142t.05-.139.062-.133.076-.126q.04-.062.087-.119t.1-.109.108-.098q.057-.047.119-.088.06-.041.126-.076.065-.035.133-.063t.139-.05q.07-.02.142-.035.073-.015.146-.022T4 12.5t.147.007.146.022q.072.014.142.036t.139.05.133.062.126.076q.062.04.119.088.057.046.109.098t.099.11.087.118q.041.06.076.126.035.065.063.133t.05.139q.02.07.035.142.015.073.022.146T5.5 14m8 0q0 .074-.007.147t-.022.146-.036.142-.05.139q-.027.068-.062.133t-.076.126-.088.119q-.046.057-.098.109t-.11.098-.118.088q-.06.041-.126.076-.065.035-.133.063t-.139.05q-.07.02-.142.035-.073.015-.146.022T12 15.5t-.147-.007-.146-.022q-.072-.014-.142-.036t-.139-.05-.133-.062-.126-.076-.119-.088q-.057-.046-.109-.098t-.099-.11-.087-.118q-.041-.06-.076-.126-.035-.065-.063-.133t-.05-.139q-.02-.07-.035-.142-.015-.073-.022-.146T10.5 14t.007-.147.022-.146q.014-.072.036-.142t.05-.139.062-.133.076-.126q.04-.062.087-.119t.1-.109.108-.098q.057-.047.119-.088.06-.041.126-.076.065-.035.133-.063t.139-.05q.07-.02.142-.035.073-.015.146-.022T12 12.5t.147.007.146.022.142.036.139.05.133.062.126.076.119.088q.057.046.109.098t.098.11.088.118q.041.06.076.126.035.065.063.133t.05.139q.02.07.035.142.015.073.022.146T13.5 14"/></svg>