<svg xmlns="http://www.w3.org/2000/svg" class="icon" viewBox="0 0 1024 1024"><path fill="currentColor" d="M607.272 705.565c-17.152 0-31.147 13.508-31.147 30.172v103.54c0 16.664 13.996 30.23 31.147 30.23 17.207 0 31.234-13.566 31.234-30.23v-103.54c0-16.663-14.026-30.172-31.234-30.172m-100.757-508.38c-2.295-42.708-35.737-77.885-78.501-82.532v-.644H202.318c-46.98 0-85.658 36.955-88.153 83.176l-.144 213.462c0 2.696.473 5.35 1.32 7.787 7.2 42.434 43.783 73.268 86.977 73.268h221.364l4.33-.26v-.357c39.208-4.188 70.73-33.529 77.154-72.004 1.005-3.055 1.52-5.737 1.52-8.434V197.185zm-52.66 9.221v192.897c0 21.912-17.897 39.71-39.925 39.71H206.706c-21.999 0-39.895-17.798-39.895-39.71V206.406c0-21.914 17.896-39.738 39.895-39.738H413.93c22.028 0 39.925 17.825 39.925 39.738m42.304 416.784c-2.296-41.53-34.79-75.747-76.379-80.308v-.63H200.052c-45.747 0-83.406 35.937-85.873 80.938l-.186 207.798c0 2.725.53 5.479 1.304 7.629 7.014 41.33 42.678 71.389 84.755 71.389h215.427l4.302-.23v-.402c38.176-4.101 68.836-32.669 75.031-70.039a23.4 23.4 0 0 0 1.548-8.347V627.523l-.057-4.332zm-51.426 9.065v187.72c0 21.254-17.352 38.548-38.72 38.548H204.326c-21.339 0-38.692-17.294-38.692-38.548v-187.72c0-21.225 17.353-38.547 38.692-38.547h201.689c21.367 0 38.72 17.322 38.72 38.547m278.497-56.187c-17.18 0-31.177 13.537-31.177 30.201v103.6c0 16.634 13.996 30.2 31.177 30.2 17.152 0 31.176-13.566 31.176-30.2v-103.6c0-16.664-14.025-30.2-31.176-30.2m186.746-380.921h-.116c-2.323-41.646-34.904-75.95-76.608-80.537v-.618H635.811c-45.776 0-83.55 36.039-86.074 81.155l-.144 208.356c0 2.753.516 5.58 1.319 7.6 7 41.445 42.736 71.547 84.9 71.547h193.14l4.301-.245v-.344c38.262-4.173 68.978-32.811 75.289-70.255.975-2.824 1.463-5.607 1.463-8.304V199.465zm-51.712 9.078V392.42c0 21.324-17.413 38.662-38.836 38.662H640.17c-21.453 0-38.864-17.337-38.864-38.662V204.226c0-21.296 17.412-38.62 38.865-38.62h179.26c21.422 0 38.835 17.324 38.835 38.62M837.7 576.039c-17.182 0-31.178 13.566-31.178 30.229v51.772c0 16.663 13.996 30.201 31.177 30.201s31.206-13.537 31.206-30.2v-51.773c0-16.663-14.025-30.23-31.206-30.23m.001 155.368c-17.182 0-31.178 13.537-31.178 30.202v77.669c0 16.693 13.996 30.23 31.177 30.23s31.206-13.537 31.206-30.23v-77.67c0-16.664-14.025-30.2-31.206-30.2m-114.467 25.928c-17.18 0-31.177 13.537-31.177 30.173v51.799c0 16.634 13.996 30.2 31.177 30.2 17.152 0 31.176-13.566 31.176-30.2v-51.798c0-16.636-14.025-30.174-31.176-30.174m-115.96-181.296c-17.152 0-31.147 13.566-31.147 30.229v25.9c0 16.637 13.996 30.203 31.147 30.203 17.207 0 31.234-13.566 31.234-30.202v-25.901c0-16.663-14.026-30.23-31.234-30.23"/></svg>