<svg xmlns="http://www.w3.org/2000/svg" viewBox="0 0 1024 1024"><path fill="currentColor" d="M646.656 409.6h192c17.92 0 31.744-14.336 31.744-31.744s-14.336-31.744-31.744-31.744H723.968l178.688-178.688c12.288-12.288 12.288-32.768 0-45.056s-32.768-12.288-45.056 0L678.912 301.056V185.344c0-17.92-14.336-31.744-31.744-31.744s-31.744 14.336-31.744 31.744v192c-1.024 17.92 13.312 32.256 31.232 32.256M121.344 902.656c12.288 12.288 32.768 12.288 45.056 0l178.688-178.688v114.688c0 17.92 14.336 31.744 31.744 31.744s31.744-14.336 31.744-31.744v-192c0-17.92-14.336-31.744-31.744-31.744H185.344c-17.92 0-31.744 14.336-31.744 31.744s14.336 31.744 31.744 31.744h114.688L121.344 857.088c-12.288 12.8-12.288 33.28 0 45.568"/></svg>