<svg xmlns="http://www.w3.org/2000/svg" viewBox="0 0 16 16"><path fill="currentColor" d="M3.64 10.136c.294 0 .542.257.542.559v2.714h8.727v-2.715a.56.56 0 0 1 .55-.558c.293 0 .541.257.541.559v2.714a1.09 1.09 0 0 1-1.09 1.091H4.181a1.09 1.09 0 0 1-1.091-1.09v-2.716a.56.56 0 0 1 .55-.558m10.898-2.181H2.552a.554.554 0 0 0-.552.55c0 .292.25.54.552.54h11.987a.554.554 0 0 0 .552-.55.553.553 0 0 0-.552-.54M12.91 3.59H4.182v2.715a.56.56 0 0 1-.55.558.56.56 0 0 1-.541-.558V3.59a1.09 1.09 0 0 1 1.09-1.091h8.728A1.09 1.09 0 0 1 14 3.589v2.716a.56.56 0 0 1-.55.558.56.56 0 0 1-.54-.558z"/></svg>