<svg xmlns="http://www.w3.org/2000/svg" viewBox="0 0 16 16"><defs><clipPath id="a"><rect width="16" height="16" rx="0"/></clipPath></defs><g clip-path="url(#a)"><path fill="#8B72F7" d="M1.02 11.803V4.217c0-1.22.99-2.208 2.208-2.208h9.577c1.22 0 2.207.99 2.207 2.208v7.586c0 1.22-.989 2.208-2.207 2.208H3.23a2.21 2.21 0 0 1-2.21-2.208"/><path fill="#7463EA" d="M8.708 6.353H4.813a.625.625 0 0 0-.625.625v2.436c0 .345.28.625.625.625h3.895c.345 0 .625-.28.625-.625V6.978a.626.626 0 0 0-.625-.625m2.836.095-1.31 1.224a.717.717 0 0 0 0 1.05l1.31 1.223c.222.208.586.05.586-.253v-2.99a.348.348 0 0 0-.586-.254"/><path fill="#FFF" d="M8.708 6.166H4.813a.625.625 0 0 0-.625.625v2.436c0 .345.28.625.625.625h3.895c.345 0 .625-.28.625-.625V6.79a.626.626 0 0 0-.625-.625m2.836.095-1.31 1.223a.717.717 0 0 0 0 1.05l1.31 1.224c.222.208.586.05.586-.253v-2.99a.348.348 0 0 0-.586-.254"/></g></svg>