<svg t="1750214664216" class="icon" viewBox="0 0 1024 1024" version="1.1" xmlns="http://www.w3.org/2000/svg" p-id="14707" width="16" height="16"><path d="M870.4 68.266667a68.266667 68.266667 0 0 1 68.266667 68.266666v238.933334a68.266667 68.266667 0 0 1-68.266667 68.266666H247.466667v298.666667h162.133333V648.533333a68.266667 68.266667 0 0 1 66.133333-68.232533L477.866667 580.266667h392.533333a68.266667 68.266667 0 0 1 68.266667 68.266666v238.933334a68.266667 68.266667 0 0 1-68.266667 68.266666H477.866667a68.266667 68.266667 0 0 1-68.266667-68.266666v-76.8H230.4a51.2 51.2 0 0 1-51.165867-49.28L179.2 759.466667V443.733333h-42.666667a68.266667 68.266667 0 0 1-68.232533-66.133333L68.266667 375.466667V136.533333a68.266667 68.266667 0 0 1 68.266666-68.266666z m0 580.266666H477.866667v238.933334h392.533333V648.533333z m0-512H136.533333v238.933334h733.866667V136.533333z" fill="#333333" p-id="14708"></path></svg>