<svg xmlns="http://www.w3.org/2000/svg" viewBox="0 0 16 16"><path fill="currentColor" fill-rule="evenodd" d="M3.726 7.313 1.5 10.65v3.248q0 .248.176.424t.424.176h11.8q.248 0 .424-.176t.176-.424V10.65l-2.226-3.337q-.178-.267-.5-.267H4.226q-.32 0-.499.267M2.3 11.172v2.526h11.4v-2.526H9.83l-1.406 1.404q-.176.176-.424.176t-.424-.176L6.17 11.172zm11.052-.8-1.685-2.526H4.332l-1.684 2.526h3.606q.248 0 .424.175L8 11.87l1.322-1.322q.176-.175.424-.175zM3.096 3.238 4.62 5.455q.056.081.143.127t.186.046h.01q.119-.003.217-.07.065-.045.109-.112.043-.067.058-.145.006-.036.006-.073v-.004q-.001-.122-.07-.222L3.755 2.784q-.045-.065-.112-.108-.067-.044-.145-.058-.036-.007-.073-.007h-.004q-.122.002-.222.07-.066.046-.11.112-.043.067-.057.145-.007.036-.007.073v.005q.002.121.07.222m9.808 0L11.38 5.455q-.056.081-.143.127t-.186.046h-.01q-.119-.003-.217-.07-.065-.045-.109-.112-.043-.067-.058-.145-.006-.036-.006-.073v-.004q.001-.122.07-.222l1.525-2.218q.045-.065.112-.108.067-.044.145-.058.036-.007.073-.007h.004q.122.002.222.07.066.046.11.112.043.067.057.145.007.036.007.073v.005q-.002.121-.07.222M7.6 1.902v3.326q0 .04.008.078.007.04.022.075.016.037.037.07.022.032.05.06t.06.05q.034.022.07.037t.075.023.078.007q.04 0 .078-.007.039-.008.075-.023t.07-.037q.032-.022.06-.05t.05-.06.037-.07.022-.075q.008-.038.008-.078V1.902q0-.039-.008-.078-.007-.038-.022-.075-.016-.036-.037-.069-.022-.033-.05-.06-.028-.028-.06-.05-.034-.022-.07-.037t-.075-.023T8 1.502q-.04 0-.078.008-.039.008-.075.023t-.07.037q-.032.022-.06.05-.028.027-.05.06-.021.033-.037.07-.015.036-.022.074-.008.04-.008.078"/></svg>