<svg xmlns="http://www.w3.org/2000/svg" viewBox="0 0 16 16"><path fill="currentColor" fill-rule="evenodd" d="M1.5 2.5A.5.5 0 0 1 2 2h12a.5.5 0 0 1 .5.5l.001 4.5a.5.5 0 0 1-.5.5h-12a.5.5 0 0 1-.5-.5zm1.492 4H13.01a.486.486 0 0 0 .49-.494V3.494A.487.487 0 0 0 13.01 3H2.99a.487.487 0 0 0-.49.494v2.512c0 .276.215.494.49.494m3.496-1.25H4.512A.513.513 0 0 1 4 4.746c0-.268.235-.496.512-.496h1.976c.277 0 .512.228.512.504a.51.51 0 0 1-.512.496M2.001 8.5a.5.5 0 0 0-.5.5v4.5a.5.5 0 0 0 .5.5h12a.5.5 0 0 0 .5-.5V9a.5.5 0 0 0-.5-.5zm11.01 4.5H2.991a.487.487 0 0 1-.49-.494V9.994c0-.276.214-.494.49-.494H13.01c.277 0 .491.218.491.494v2.512a.487.487 0 0 1-.49.494m-8.5-1.25h1.977A.513.513 0 0 0 7 11.246a.51.51 0 0 0-.512-.496H4.512a.513.513 0 0 0-.512.504c0 .268.236.496.512.496"/></svg>